<svg xmlns="http://www.w3.org/2000/svg" xmlns:xlink="http://www.w3.org/1999/xlink" width="53.969" height="37.687" viewBox="0 0 53.969 37.687">
  <metadata><?xpacket begin="﻿" id="W5M0MpCehiHzreSzNTczkc9d"?>
<x:xmpmeta xmlns:x="adobe:ns:meta/" x:xmptk="Adobe XMP Core 5.6-c138 79.159824, 2016/09/14-01:09:01        ">
   <rdf:RDF xmlns:rdf="http://www.w3.org/1999/02/22-rdf-syntax-ns#">
      <rdf:Description rdf:about=""/>
   </rdf:RDF>
</x:xmpmeta>
                                                                                                    
                                                                                                    
                                                                                                    
                                                                                                    
                                                                                                    
                                                                                                    
                                                                                                    
                                                                                                    
                                                                                                    
                                                                                                    
                                                                                                    
                                                                                                    
                                                                                                    
                                                                                                    
                                                                                                    
                                                                                                    
                                                                                                    
                                                                                                    
                                                                                                    
                                                                                                    
                           
<?xpacket end="w"?></metadata>
<defs>
    <style>
      .cls-1 {
        fill-rule: evenodd;
        filter: url(#filter);
      }
    </style>
    <filter id="filter" x="162.969" y="388.688" width="53.969" height="37.687" filterUnits="userSpaceOnUse">
      <feFlood result="flood" flood-color="#808492"/>
      <feComposite result="composite" operator="in" in2="SourceGraphic"/>
      <feBlend result="blend" in2="SourceGraphic"/>
    </filter>
  </defs>
  <path id="Forma_1_copy" data-name="Forma 1 copy" class="cls-1" d="M216.652,400.327a1.4,1.4,0,0,0-1.071-.5h-5.255c-1.3-3.374-2.986-6.682-4.906-7.93-6.643-4.313-24.262-4.313-30.9,0-1.922,1.249-3.6,4.558-4.908,7.93h-5.254a1.386,1.386,0,0,0-1.072.5,1.35,1.35,0,0,0-.282,1.138l0.779,3.719a1.377,1.377,0,0,0,1.353,1.087h1.557a9.133,9.133,0,0,0-2.241,6.019,8.954,8.954,0,0,0,2.888,6.771c0.02,0.016.041,0.031,0.061,0.048v5.207a2.061,2.061,0,0,0,2.073,2.046h4.847a2.062,2.062,0,0,0,2.074-2.046v-2.093h27.152v2.093a2.06,2.06,0,0,0,2.073,2.046h4.846a2.062,2.062,0,0,0,2.073-2.046v-5.1a9.267,9.267,0,0,0,.6-12.941H214.8a1.373,1.373,0,0,0,1.353-1.087l0.78-3.72A1.357,1.357,0,0,0,216.652,400.327Zm-39.859-5.015c5.294-3.437,21.054-3.437,26.344,0,1.029,0.667,2.352,3.357,3.564,6.652H173.232C174.441,398.67,175.764,395.98,176.793,395.312Zm-6.2,17.493a4.08,4.08,0,1,1,4.08,4.025A4.053,4.053,0,0,1,170.591,412.805Zm34.725,4.025a4.025,4.025,0,1,1,4.08-4.025A4.053,4.053,0,0,1,205.316,416.83Z" transform="translate(-162.969 -388.688)"/>
</svg>
