<svg xmlns="http://www.w3.org/2000/svg" width="44" height="44.5" viewBox="0 0 44 44.5">
  <metadata><?xpacket begin="﻿" id="W5M0MpCehiHzreSzNTczkc9d"?>
<x:xmpmeta xmlns:x="adobe:ns:meta/" x:xmptk="Adobe XMP Core 5.6-c142 79.160924, 2017/07/13-01:06:39        ">
   <rdf:RDF xmlns:rdf="http://www.w3.org/1999/02/22-rdf-syntax-ns#">
      <rdf:Description rdf:about=""/>
   </rdf:RDF>
</x:xmpmeta>
                                                                                                    
                                                                                                    
                                                                                                    
                                                                                                    
                                                                                                    
                                                                                                    
                                                                                                    
                                                                                                    
                                                                                                    
                                                                                                    
                                                                                                    
                                                                                                    
                                                                                                    
                                                                                                    
                                                                                                    
                                                                                                    
                                                                                                    
                                                                                                    
                                                                                                    
                                                                                                    
                           
<?xpacket end="w"?></metadata>
<defs>
    <style>
      .cls-1 {
        fill: #fbfcfd;
        fill-opacity: 0;
        stroke: #40424e;
        stroke-linejoin: round;
        stroke-width: 1px;
      }

      .cls-2 {
        fill: #40424e;
        fill-rule: evenodd;
      }
    </style>
  </defs>
  <rect id="Rounded_Rectangle_1021" data-name="Rounded Rectangle 1021" class="cls-1" x="0.5" y="5" width="43" height="39" rx="4" ry="4"/>
  <path id="Rounded_Rectangle_1022" data-name="Rounded Rectangle 1022" class="cls-2" d="M915,457a2,2,0,1,1-2,2A2,2,0,0,1,915,457Zm10,0a2,2,0,1,1-2,2A2,2,0,0,1,925,457Zm10,0a2,2,0,1,1-2,2A2,2,0,0,1,935,457Zm-20,7a2,2,0,1,1-2,2A2,2,0,0,1,915,464Zm10,0a2,2,0,1,1-2,2A2,2,0,0,1,925,464Zm10,0a2,2,0,1,1-2,2A2,2,0,0,1,935,464Zm-20,7a2,2,0,1,1-2,2A2,2,0,0,1,915,471Zm10,0a2,2,0,1,1-2,2A2,2,0,0,1,925,471Zm10,0a2,2,0,1,1-2,2A2,2,0,0,1,935,471Zm-20.5-31a0.5,0.5,0,0,1,.5.5v10a0.5,0.5,0,0,1-1,0v-10A0.5,0.5,0,0,1,914.5,440Zm11,0a0.5,0.5,0,0,1,.5.5v10a0.5,0.5,0,0,1-1,0v-10A0.5,0.5,0,0,1,925.5,440Zm11,0a0.5,0.5,0,0,1,.5.5v10a0.5,0.5,0,0,1-1,0v-10A0.5,0.5,0,0,1,936.5,440Z" transform="translate(-903.5 -440)"/>
</svg>
