<svg xmlns="http://www.w3.org/2000/svg" xmlns:xlink="http://www.w3.org/1999/xlink" width="52" height="51" viewBox="0 0 52 51">
  <metadata><?xpacket begin="﻿" id="W5M0MpCehiHzreSzNTczkc9d"?>
<x:xmpmeta xmlns:x="adobe:ns:meta/" x:xmptk="Adobe XMP Core 5.6-c138 79.159824, 2016/09/14-01:09:01        ">
   <rdf:RDF xmlns:rdf="http://www.w3.org/1999/02/22-rdf-syntax-ns#">
      <rdf:Description rdf:about=""/>
   </rdf:RDF>
</x:xmpmeta>
                                                                                                    
                                                                                                    
                                                                                                    
                                                                                                    
                                                                                                    
                                                                                                    
                                                                                                    
                                                                                                    
                                                                                                    
                                                                                                    
                                                                                                    
                                                                                                    
                                                                                                    
                                                                                                    
                                                                                                    
                                                                                                    
                                                                                                    
                                                                                                    
                                                                                                    
                                                                                                    
                           
<?xpacket end="w"?></metadata>
<defs>
    <style>
      .cls-1 {
        stroke: #fbfcfd;
        stroke-linejoin: round;
        stroke-width: 1px;
        fill-rule: evenodd;
        filter: url(#filter);
      }
    </style>
    <filter id="filter" x="804" y="436" width="52" height="51" filterUnits="userSpaceOnUse">
      <feFlood result="flood" flood-color="#40424e"/>
      <feComposite result="composite" operator="in" in2="SourceGraphic"/>
      <feBlend result="blend" in2="SourceGraphic"/>
    </filter>
  </defs>
  <g transform="translate(-804 -436)" style="fill: ; filter: url(#filter)">
    <path id="Forma_1" data-name="Forma 1" class="cls-1" d="M849.242,443.228h-6.1v-2.811a1.407,1.407,0,0,0-2.813,0v2.811h-8.439v-2.811a1.407,1.407,0,0,0-2.813,0v2.811h-8.439v-2.811a1.407,1.407,0,0,0-2.813,0v2.811h-6.094a3.748,3.748,0,0,0-3.751,3.747v33.263a3.749,3.749,0,0,0,3.751,3.748h37.507a3.748,3.748,0,0,0,3.749-3.748V446.975A3.747,3.747,0,0,0,849.242,443.228Zm0.936,37.01a0.937,0.937,0,0,1-.936.937H811.735a0.938,0.938,0,0,1-.938-0.937V446.975a0.938,0.938,0,0,1,.938-0.936h6.094v2.811a1.407,1.407,0,0,0,2.813,0v-2.811h8.439v2.811a1.407,1.407,0,0,0,2.813,0v-2.811h8.439v2.811a1.407,1.407,0,0,0,2.813,0v-2.811h6.1a0.937,0.937,0,0,1,.936.936v33.263Zm-32.349-24.361h5.626v4.216h-5.626v-4.216Zm0,7.027h5.626v4.217h-5.626V462.9Zm0,7.028h5.626v4.216h-5.626v-4.216Zm9.846,0H833.3v4.216h-5.626v-4.216Zm0-7.028H833.3v4.217h-5.626V462.9Zm0-7.027H833.3v4.216h-5.626v-4.216Zm9.845,14.055h5.626v4.216H837.52v-4.216Zm0-7.028h5.626v4.217H837.52V462.9Zm0-7.027h5.626v4.216H837.52v-4.216Z" style="stroke: inherit; filter: none; fill: inherit"/>
  </g>
  <use transform="translate(-804 -436)" xlink:href="#Forma_1" style="stroke: #fbfcfd; filter: none; fill: none"/>
</svg>
