<svg xmlns="http://www.w3.org/2000/svg" xmlns:xlink="http://www.w3.org/1999/xlink" width="20.812" height="14.531" viewBox="0 0 20.812 14.531">
  <metadata><?xpacket begin="﻿" id="W5M0MpCehiHzreSzNTczkc9d"?>
<x:xmpmeta xmlns:x="adobe:ns:meta/" x:xmptk="Adobe XMP Core 5.6-c138 79.159824, 2016/09/14-01:09:01        ">
   <rdf:RDF xmlns:rdf="http://www.w3.org/1999/02/22-rdf-syntax-ns#">
      <rdf:Description rdf:about=""/>
   </rdf:RDF>
</x:xmpmeta>
                                                                                                    
                                                                                                    
                                                                                                    
                                                                                                    
                                                                                                    
                                                                                                    
                                                                                                    
                                                                                                    
                                                                                                    
                                                                                                    
                                                                                                    
                                                                                                    
                                                                                                    
                                                                                                    
                                                                                                    
                                                                                                    
                                                                                                    
                                                                                                    
                                                                                                    
                                                                                                    
                           
<?xpacket end="w"?></metadata>
<defs>
    <style>
      .cls-1 {
        fill-rule: evenodd;
        filter: url(#filter);
      }
    </style>
    <filter id="filter" x="715.813" y="517.594" width="20.812" height="14.531" filterUnits="userSpaceOnUse">
      <feFlood result="flood" flood-color="#676972"/>
      <feComposite result="composite" operator="in" in2="SourceGraphic"/>
      <feBlend result="blend" in2="SourceGraphic"/>
    </filter>
  </defs>
  <path id="Forma_1_copy_11" data-name="Forma 1 copy 11" class="cls-1" d="M736.511,522.077a0.537,0.537,0,0,0-.413-0.194h-2.027a6.821,6.821,0,0,0-1.892-3.059c-2.562-1.663-9.357-1.663-11.919,0a6.828,6.828,0,0,0-1.893,3.059H716.34a0.533,0.533,0,0,0-.413.194,0.519,0.519,0,0,0-.109.439l0.3,1.434a0.532,0.532,0,0,0,.522.419h0.6a3.526,3.526,0,0,0-.865,2.322,3.458,3.458,0,0,0,1.114,2.611l0.024,0.019v2.008a0.8,0.8,0,0,0,.8.789h1.87a0.8,0.8,0,0,0,.8-0.789v-0.807h10.472v0.807a0.8,0.8,0,0,0,.8.789h1.868a0.8,0.8,0,0,0,.8-0.789V529.36a3.575,3.575,0,0,0,.233-4.991H735.8a0.529,0.529,0,0,0,.521-0.419l0.3-1.435A0.522,0.522,0,0,0,736.511,522.077Zm-15.373-1.934c2.042-1.326,8.12-1.326,10.161,0a6.481,6.481,0,0,1,1.374,2.565H719.764A6.476,6.476,0,0,1,721.138,520.143Zm-2.392,6.746a1.574,1.574,0,1,1,1.573,1.553A1.563,1.563,0,0,1,718.746,526.889Zm13.393,1.553a1.553,1.553,0,1,1,1.573-1.553A1.564,1.564,0,0,1,732.139,528.442Z" transform="translate(-715.813 -517.594)"/>
</svg>
