<svg xmlns="http://www.w3.org/2000/svg" xmlns:xlink="http://www.w3.org/1999/xlink" width="32" height="47.5" viewBox="0 0 32 47.5">
  <metadata><?xpacket begin="﻿" id="W5M0MpCehiHzreSzNTczkc9d"?>
<x:xmpmeta xmlns:x="adobe:ns:meta/" x:xmptk="Adobe XMP Core 5.6-c138 79.159824, 2016/09/14-01:09:01        ">
   <rdf:RDF xmlns:rdf="http://www.w3.org/1999/02/22-rdf-syntax-ns#">
      <rdf:Description rdf:about=""/>
   </rdf:RDF>
</x:xmpmeta>
                                                                                                    
                                                                                                    
                                                                                                    
                                                                                                    
                                                                                                    
                                                                                                    
                                                                                                    
                                                                                                    
                                                                                                    
                                                                                                    
                                                                                                    
                                                                                                    
                                                                                                    
                                                                                                    
                                                                                                    
                                                                                                    
                                                                                                    
                                                                                                    
                                                                                                    
                                                                                                    
                           
<?xpacket end="w"?></metadata>
<defs>
    <style>
      .cls-1 {
        fill: #a4a4a4;
        fill-rule: evenodd;
        filter: url(#filter);
      }
    </style>
    <filter id="filter" x="634" y="439.25" width="32" height="47.5" filterUnits="userSpaceOnUse">
      <feFlood result="flood" flood-color="#40424e"/>
      <feComposite result="composite" operator="in" in2="SourceGraphic"/>
      <feBlend result="blend" in2="SourceGraphic"/>
    </filter>
  </defs>
  <path id="Forma_1" data-name="Forma 1" class="cls-1" d="M647.543,452.816l-0.46-5.513a0.7,0.7,0,0,0-.693-0.638h-0.7v-0.7a2.087,2.087,0,0,0-4.174,0v0.7h-0.7a0.7,0.7,0,0,0-.692.626l-0.556,5.565a0.7,0.7,0,0,0,.692.765h6.587a0.7,0.7,0,0,0,.7-0.695A0.791,0.791,0,0,0,647.543,452.816Zm-4.632-6.847a0.7,0.7,0,0,1,1.392,0v0.7h-1.392v-0.7Zm-1.875,6.261,0.418-4.174h4.3l0.347,4.174h-5.061ZM666,445.436a0.4,0.4,0,0,0-.007-0.05l0-.018c0-.02-0.009-0.039-0.014-0.058a0.019,0.019,0,0,1,0-.008q-0.009-.029-0.021-0.057a0.014,0.014,0,0,1,0-.007c-0.008-.018-0.016-0.035-0.025-0.052l0-.009a0.425,0.425,0,0,0-.027-0.046l-0.008-.013c-0.009-.014-0.02-0.028-0.031-0.042l-0.009-.012c-0.015-.018-0.03-0.035-0.046-0.051l-5.565-5.565c-0.016-.016-0.033-0.031-0.051-0.046l-0.014-.01a0.379,0.379,0,0,0-.04-0.03l-0.014-.008a0.335,0.335,0,0,0-.045-0.027l-0.01,0-0.051-.025-0.008,0a0.373,0.373,0,0,0-.056-0.02l-0.009,0-0.057-.014-0.018,0a0.4,0.4,0,0,0-.05-0.007,0.532,0.532,0,0,0-.069,0H634.7a0.7,0.7,0,0,0-.7.7V482a0.7,0.7,0,0,0,.7.7h15.769a0.7,0.7,0,0,0,0-1.392H635.4v-40.67H659.05v4.869a0.7,0.7,0,0,0,.7.7h4.869v35.1h-3.94a0.7,0.7,0,1,0,0,1.392h4.636a0.7,0.7,0,0,0,.7-0.7v-36.5A0.532,0.532,0,0,0,666,445.436Zm-5.561-.627v-3.19l3.19,3.19h-3.19Zm-0.7,14.238H640.268a0.7,0.7,0,1,0,0,1.391h19.478A0.7,0.7,0,1,0,659.746,459.047Zm0,3.711H640.268a0.7,0.7,0,1,0,0,1.391h19.478A0.7,0.7,0,1,0,659.746,462.758Zm0,3.71H640.268a0.7,0.7,0,1,0,0,1.391h19.478A0.7,0.7,0,1,0,659.746,466.468Zm-11.131,3.71h-8.347a0.7,0.7,0,1,0,0,1.391h8.347A0.7,0.7,0,1,0,648.615,470.178Zm11.828,6.725a4.87,4.87,0,1,0-7.885,3.82v5.316c0,0.007,0,.015,0,0.022s0,0.028,0,.042,0,0.02,0,.03l0.006,0.038c0,0.011,0,.021.007,0.031l0.009,0.035,0.011,0.032,0.012,0.032a0.241,0.241,0,0,0,.015.033c0,0.009.008,0.019,0.013,0.029l0.02,0.033,0.015,0.025c0.008,0.012.016,0.023,0.025,0.034a0.214,0.214,0,0,0,.013.019l0,0a0.641,0.641,0,0,0,.049.055l0.016,0.014c0.012,0.012.026,0.024,0.039,0.035l0.025,0.019,0.035,0.024,0.027,0.016,0.038,0.021,0.026,0.012c0.014,0.007.029,0.012,0.043,0.018l0.024,0.008,0.051,0.015,0.02,0a0.562,0.562,0,0,0,.057.009l0.016,0q0.035,0,.069,0h0.008a0.64,0.64,0,0,0,.1-0.008l0.021,0a0.764,0.764,0,0,0,.1-0.024l0.017-.007a0.753,0.753,0,0,0,.1-0.042l0,0a0.706,0.706,0,0,0,.092-0.062l0.006,0,1.884-1.507,1.884,1.507,0.006,0a0.716,0.716,0,0,0,.093.062l0,0a0.686,0.686,0,0,0,.1.043l0.017,0.006a0.808,0.808,0,0,0,.1.024l0.021,0a0.64,0.64,0,0,0,.1.008H657.9q0.034,0,.069,0l0.016,0a0.521,0.521,0,0,0,.057-0.009l0.02,0,0.051-.015,0.023-.008c0.015-.006.03-0.011,0.044-0.018l0.026-.012,0.038-.021,0.027-.016c0.012-.008.024-0.016,0.035-0.025l0.025-.018a0.44,0.44,0,0,0,.039-0.035l0.016-.014a0.641,0.641,0,0,0,.049-0.055l0,0,0.013-.018,0.025-.035c0.006-.008.01-0.017,0.016-0.025l0.019-.033c0-.01.009-0.02,0.014-0.029l0.015-.033,0.011-.032c0-.011.008-0.021,0.011-0.032l0.009-.035c0-.01,0-0.02.007-0.031l0.006-.038c0-.01,0-0.02,0-0.03s0-.028,0-0.042,0-.015,0-0.022v-5.316A4.864,4.864,0,0,0,660.443,476.9Zm-4.425,6.746h0l-0.009-.008-0.016-.011a0.433,0.433,0,0,0-.037-0.027l-0.023-.014-0.036-.021-0.029-.014-0.032-.014-0.034-.013-0.029-.009-0.036-.01-0.029-.006-0.036-.006-0.031,0-0.033,0h-0.064l-0.039,0-0.026,0-0.041.007-0.024.006-0.04.01-0.026.009-0.037.013-0.029.013-0.032.015-0.034.02-0.024.015a0.318,0.318,0,0,0-.037.027l-0.016.011-0.009.008h0l-1.178.943v-3.1a4.86,4.86,0,0,0,3.246,0v3.1Zm-0.445-3.268a3.478,3.478,0,1,1,3.478-3.478A3.483,3.483,0,0,1,655.573,480.381Zm0-5.565a2.087,2.087,0,1,0,2.087,2.087A2.089,2.089,0,0,0,655.573,474.816Zm0,2.782a0.7,0.7,0,1,1,.7-0.695A0.7,0.7,0,0,1,655.573,477.6Z" transform="translate(-634 -439.25)"/>
</svg>
