<svg xmlns="http://www.w3.org/2000/svg" width="30.531" height="42.968" viewBox="0 0 30.531 42.968">
  <metadata><?xpacket begin="﻿" id="W5M0MpCehiHzreSzNTczkc9d"?>
<x:xmpmeta xmlns:x="adobe:ns:meta/" x:xmptk="Adobe XMP Core 5.6-c138 79.159824, 2016/09/14-01:09:01        ">
   <rdf:RDF xmlns:rdf="http://www.w3.org/1999/02/22-rdf-syntax-ns#">
      <rdf:Description rdf:about=""/>
   </rdf:RDF>
</x:xmpmeta>
                                                                                                    
                                                                                                    
                                                                                                    
                                                                                                    
                                                                                                    
                                                                                                    
                                                                                                    
                                                                                                    
                                                                                                    
                                                                                                    
                                                                                                    
                                                                                                    
                                                                                                    
                                                                                                    
                                                                                                    
                                                                                                    
                                                                                                    
                                                                                                    
                                                                                                    
                                                                                                    
                           
<?xpacket end="w"?></metadata>
<defs>
    <style>
      .cls-1 {
        fill: #29338f;
        fill-rule: evenodd;
      }
    </style>
  </defs>
  <path id="Forma_1" data-name="Forma 1" class="cls-1" d="M298.393,452.233h3.38a1.765,1.765,0,0,0,1.763-1.763v-8.63a1.765,1.765,0,0,0-1.763-1.763h-3.38a1.765,1.765,0,0,0-1.764,1.763v3.487H291.2a3.038,3.038,0,0,0-5.846,0h-5.434V441.84a1.765,1.765,0,0,0-1.764-1.763h-3.38a1.765,1.765,0,0,0-1.763,1.763v8.63a1.765,1.765,0,0,0,1.763,1.763h3.38a1.765,1.765,0,0,0,1.764-1.763v-3.486h5.434a3.051,3.051,0,0,0,2.094,2.094v13.8a4.528,4.528,0,0,0,0,7.779v3.378a3.048,3.048,0,0,0-2.094,2.095h-5.434v-3.486a1.765,1.765,0,0,0-1.764-1.763h-3.38a1.765,1.765,0,0,0-1.763,1.763v8.629a1.765,1.765,0,0,0,1.763,1.764h3.38a1.766,1.766,0,0,0,1.764-1.764v-3.485h5.434a3.038,3.038,0,0,0,5.846,0h5.434v3.485a1.766,1.766,0,0,0,1.764,1.764h3.379a1.766,1.766,0,0,0,1.764-1.764v-8.629a1.765,1.765,0,0,0-1.764-1.763h-3.379a1.765,1.765,0,0,0-1.764,1.763v3.486H291.2a3.054,3.054,0,0,0-2.094-2.095v-3.378a4.528,4.528,0,0,0,0-7.779v-13.8a3.051,3.051,0,0,0,2.094-2.094h5.434v3.486A1.765,1.765,0,0,0,298.393,452.233Zm-20.136-1.763a0.105,0.105,0,0,1-.106.1h-3.38a0.1,0.1,0,0,1-.105-0.1v-8.63a0.1,0.1,0,0,1,.105-0.1h3.38a0.105,0.105,0,0,1,.106.1v8.63h0Zm0,30.8a0.106,0.106,0,0,1-.106.106h-3.38a0.106,0.106,0,0,1-.105-0.106v-8.629a0.106,0.106,0,0,1,.105-0.106h3.38a0.106,0.106,0,0,1,.106.106v8.629h0Zm20.03-8.629a0.106,0.106,0,0,1,.106-0.106h3.38a0.106,0.106,0,0,1,.1.106v8.629a0.106,0.106,0,0,1-.1.106h-3.38a0.106,0.106,0,0,1-.106-0.106v-8.629Zm-8.634,4.315a1.381,1.381,0,1,1-1.381-1.382A1.383,1.383,0,0,1,289.653,476.96Zm-1.381-7.812c-0.653,0-1.381-.977-1.381-2.379s0.728-2.38,1.381-2.38,1.381,0.977,1.381,2.38S288.925,469.148,288.272,469.148Zm0-21.612a1.381,1.381,0,1,1,1.381-1.381A1.382,1.382,0,0,1,288.272,447.536Zm10.015-5.7a0.105,0.105,0,0,1,.106-0.1h3.38a0.1,0.1,0,0,1,.1.1v8.63a0.1,0.1,0,0,1-.1.1h-3.38a0.105,0.105,0,0,1-.106-0.1v-8.63Z" transform="translate(-273 -440.063)"/>
</svg>
