<svg xmlns="http://www.w3.org/2000/svg" width="32" height="23" viewBox="0 0 32 23">
  <metadata><?xpacket begin="﻿" id="W5M0MpCehiHzreSzNTczkc9d"?>
<x:xmpmeta xmlns:x="adobe:ns:meta/" x:xmptk="Adobe XMP Core 5.6-c142 79.160924, 2017/07/13-01:06:39        ">
   <rdf:RDF xmlns:rdf="http://www.w3.org/1999/02/22-rdf-syntax-ns#">
      <rdf:Description rdf:about=""/>
   </rdf:RDF>
</x:xmpmeta>
                                                                                                    
                                                                                                    
                                                                                                    
                                                                                                    
                                                                                                    
                                                                                                    
                                                                                                    
                                                                                                    
                                                                                                    
                                                                                                    
                                                                                                    
                                                                                                    
                                                                                                    
                                                                                                    
                                                                                                    
                                                                                                    
                                                                                                    
                                                                                                    
                                                                                                    
                                                                                                    
                           
<?xpacket end="w"?></metadata>
<defs>
    <style>
      .cls-1 {
        fill: #0a0a0a;
        fill-rule: evenodd;
      }
    </style>
  </defs>
  <path id="Forma_1_copy" data-name="Forma 1 copy" class="cls-1" d="M1625.94,194.126v2.546a1.322,1.322,0,0,0,1.31,1.328h6.43a1.322,1.322,0,0,0,1.31-1.328v-2.546a1.322,1.322,0,0,0-1.31-1.328h-2.6v-4.092a2.294,2.294,0,0,0,0-4.4v-4.092h2.6a1.322,1.322,0,0,0,1.31-1.328v-2.545a1.322,1.322,0,0,0-1.31-1.328h-6.43a1.322,1.322,0,0,0-1.31,1.328v2.545a1.322,1.322,0,0,0,1.31,1.328h2.6V184.3a2.285,2.285,0,0,0-1.56,1.578h-10.28a3.358,3.358,0,0,0-5.8,0h-2.51a2.3,2.3,0,0,0-1.56-1.578v-4.092h2.59a1.324,1.324,0,0,0,1.32-1.328v-2.545a1.324,1.324,0,0,0-1.32-1.328h-6.43a1.322,1.322,0,0,0-1.31,1.328v2.545a1.322,1.322,0,0,0,1.31,1.328h2.6V184.3a2.294,2.294,0,0,0,0,4.4V192.8h-2.6a1.322,1.322,0,0,0-1.31,1.328v2.545A1.322,1.322,0,0,0,1604.3,198h6.43a1.325,1.325,0,0,0,1.32-1.329v-2.545a1.324,1.324,0,0,0-1.32-1.328h-2.59v-4.092a2.3,2.3,0,0,0,1.56-1.577h2.51a3.359,3.359,0,0,0,5.8,0h10.28a2.282,2.282,0,0,0,1.56,1.577V192.8h-2.6A1.322,1.322,0,0,0,1625.94,194.126Zm1.31-15.163a0.083,0.083,0,0,1-.08-0.08v-2.545a0.083,0.083,0,0,1,.08-0.08h6.43a0.083,0.083,0,0,1,.08.08v2.545a0.083,0.083,0,0,1-.08.08h-6.43Zm-22.95,0a0.075,0.075,0,0,1-.07-0.08v-2.545a0.075,0.075,0,0,1,.07-0.08h6.43a0.077,0.077,0,0,1,.08.08v2.545a0.077,0.077,0,0,1-.08.08h-6.43Zm6.43,15.084a0.076,0.076,0,0,1,.08.079v2.546a0.076,0.076,0,0,1-.08.079h-6.43a0.074,0.074,0,0,1-.07-0.079v-2.546a0.074,0.074,0,0,1,.07-0.079h6.43Zm-3.21-6.5a1.041,1.041,0,1,1,1.03-1.04A1.035,1.035,0,0,1,1607.52,187.545Zm5.82-1.04c0-.492.73-1.041,1.77-1.041s1.77,0.549,1.77,1.041-0.73,1.04-1.77,1.04S1613.34,187,1613.34,186.505Zm16.1,0a1.025,1.025,0,1,1,1.03,1.04A1.035,1.035,0,0,1,1629.44,186.505Zm4.24,7.542a0.083,0.083,0,0,1,.08.079v2.546a0.082,0.082,0,0,1-.08.079h-6.43a0.082,0.082,0,0,1-.08-0.079v-2.546a0.082,0.082,0,0,1,.08-0.079h6.43Z" transform="translate(-1603 -175)"/>
</svg>
