<svg xmlns="http://www.w3.org/2000/svg" xmlns:xlink="http://www.w3.org/1999/xlink" width="22.94" height="22.938" viewBox="0 0 22.94 22.938">
  <metadata><?xpacket begin="﻿" id="W5M0MpCehiHzreSzNTczkc9d"?>
<x:xmpmeta xmlns:x="adobe:ns:meta/" x:xmptk="Adobe XMP Core 5.6-c138 79.159824, 2016/09/14-01:09:01        ">
   <rdf:RDF xmlns:rdf="http://www.w3.org/1999/02/22-rdf-syntax-ns#">
      <rdf:Description rdf:about=""/>
   </rdf:RDF>
</x:xmpmeta>
                                                                                                    
                                                                                                    
                                                                                                    
                                                                                                    
                                                                                                    
                                                                                                    
                                                                                                    
                                                                                                    
                                                                                                    
                                                                                                    
                                                                                                    
                                                                                                    
                                                                                                    
                                                                                                    
                                                                                                    
                                                                                                    
                                                                                                    
                                                                                                    
                                                                                                    
                                                                                                    
                           
<?xpacket end="w"?></metadata>
<defs>
    <style>
      .cls-1 {
        fill: #2b353e;
        fill-rule: evenodd;
        opacity: 0.75;
        filter: url(#filter);
      }
    </style>
    <filter id="filter" x="1193.53" y="195.531" width="22.94" height="22.938" filterUnits="userSpaceOnUse">
      <feFlood result="flood" flood-color="#c5c5c5"/>
      <feComposite result="composite" operator="in" in2="SourceGraphic"/>
      <feBlend result="blend" in2="SourceGraphic"/>
    </filter>
  </defs>
  <path id="Forma_1" data-name="Forma 1" class="cls-1" d="M1205,195.525A11.475,11.475,0,1,0,1216.47,207,11.49,11.49,0,0,0,1205,195.525Zm0,20.983a9.508,9.508,0,1,1,9.51-9.508A9.523,9.523,0,0,1,1205,216.508Zm4.44-13.948a0.983,0.983,0,0,0-1.39,0l-3.05,3.05-3.05-3.05a0.983,0.983,0,0,0-1.39,1.391l3.05,3.05-3.05,3.049a0.991,0.991,0,0,0,0,1.391,0.983,0.983,0,0,0,1.39,0l3.05-3.049,3.05,3.049a0.983,0.983,0,0,0,1.39,0,0.991,0.991,0,0,0,0-1.391L1206.39,207l3.05-3.05A0.991,0.991,0,0,0,1209.44,202.56Z" transform="translate(-1193.53 -195.531)"/>
</svg>
