<svg xmlns="http://www.w3.org/2000/svg" xmlns:xlink="http://www.w3.org/1999/xlink" width="33" height="33.75" viewBox="0 0 33 33.75">
  <metadata><?xpacket begin="﻿" id="W5M0MpCehiHzreSzNTczkc9d"?>
<x:xmpmeta xmlns:x="adobe:ns:meta/" x:xmptk="Adobe XMP Core 5.6-c142 79.160924, 2017/07/13-01:06:39        ">
   <rdf:RDF xmlns:rdf="http://www.w3.org/1999/02/22-rdf-syntax-ns#">
      <rdf:Description rdf:about=""/>
   </rdf:RDF>
</x:xmpmeta>
                                                                                                    
                                                                                                    
                                                                                                    
                                                                                                    
                                                                                                    
                                                                                                    
                                                                                                    
                                                                                                    
                                                                                                    
                                                                                                    
                                                                                                    
                                                                                                    
                                                                                                    
                                                                                                    
                                                                                                    
                                                                                                    
                                                                                                    
                                                                                                    
                                                                                                    
                                                                                                    
                           
<?xpacket end="w"?></metadata>
<defs>
    <style>
      .cls-1 {
        fill-rule: evenodd;
        filter: url(#filter);
      }
    </style>
    <filter id="filter" x="1316" y="510.125" width="33" height="33.75" filterUnits="userSpaceOnUse">
      <feFlood result="flood" flood-color="#a1a8b2"/>
      <feComposite result="composite" operator="in" in2="SourceGraphic"/>
      <feBlend result="blend" in2="SourceGraphic"/>
    </filter>
  </defs>
  <path id="Forma_1" data-name="Forma 1" class="cls-1" d="M1327.92,528.745a0.763,0.763,0,0,0-.76-0.765h-2.68a0.763,0.763,0,0,0-.76.765v2.675a0.763,0.763,0,0,0,.76.766h2.68a0.763,0.763,0,0,0,.76-0.766v-2.675h0Zm6.68,0a0.763,0.763,0,0,0-.76-0.765h-2.68a0.763,0.763,0,0,0-.76.765v2.675a0.763,0.763,0,0,0,.76.766h2.68a0.763,0.763,0,0,0,.76-0.766v-2.675Zm6.68,0a0.763,0.763,0,0,0-.76-0.765h-2.68a0.763,0.763,0,0,0-.76.765v2.675a0.763,0.763,0,0,0,.76.766h2.68a0.763,0.763,0,0,0,.76-0.766v-2.675Zm-13.36,6.685a0.763,0.763,0,0,0-.76-0.766h-2.68a0.763,0.763,0,0,0-.76.766V538.1a0.762,0.762,0,0,0,.76.766h2.68a0.762,0.762,0,0,0,.76-0.766V535.43h0Zm6.68,0a0.763,0.763,0,0,0-.76-0.766h-2.68a0.763,0.763,0,0,0-.76.766V538.1a0.762,0.762,0,0,0,.76.766h2.68a0.762,0.762,0,0,0,.76-0.766V535.43Zm6.68,0a0.763,0.763,0,0,0-.76-0.766h-2.68a0.763,0.763,0,0,0-.76.766V538.1a0.762,0.762,0,0,0,.76.766h2.68a0.762,0.762,0,0,0,.76-0.766V535.43h0Zm4.78-21.554v4.085a3.331,3.331,0,0,1-3.34,3.334h-2.11a3.354,3.354,0,0,1-3.36-3.334v-4.1h-9.5v4.1a3.354,3.354,0,0,1-3.36,3.334h-2.11a3.331,3.331,0,0,1-3.34-3.334v-4.085A3.037,3.037,0,0,0,1316,516.9v23.938a3.037,3.037,0,0,0,3.02,3.045h26.95a3.048,3.048,0,0,0,3.03-3.045V516.9A3.037,3.037,0,0,0,1346.06,513.876Zm-0.98,25.472a1.3,1.3,0,0,1-1.3,1.309h-22.61a1.305,1.305,0,0,1-1.31-1.309V526.983a1.306,1.306,0,0,1,1.31-1.309h22.61a1.3,1.3,0,0,1,1.3,1.309v12.365h0Zm-22.81-20.243h2.09a1.143,1.143,0,0,0,1.14-1.146v-6.7a1.143,1.143,0,0,0-1.14-1.147h-2.09a1.143,1.143,0,0,0-1.14,1.147v6.7A1.143,1.143,0,0,0,1322.27,519.105Zm18.32,0h2.08a1.151,1.151,0,0,0,1.15-1.146v-6.7a1.151,1.151,0,0,0-1.15-1.147h-2.08a1.145,1.145,0,0,0-1.15,1.147v6.7A1.145,1.145,0,0,0,1340.59,519.105Z" transform="translate(-1316 -510.125)"/>
</svg>
