<svg xmlns="http://www.w3.org/2000/svg" xmlns:xlink="http://www.w3.org/1999/xlink" width="32" height="31.137" viewBox="0 0 29.001 28.219">
  <metadata><?xpacket begin="﻿" id="W5M0MpCehiHzreSzNTczkc9d"?>
<x:xmpmeta xmlns:x="adobe:ns:meta/" x:xmptk="Adobe XMP Core 5.6-c138 79.159824, 2016/09/14-01:09:01        ">
   <rdf:RDF xmlns:rdf="http://www.w3.org/1999/02/22-rdf-syntax-ns#">
      <rdf:Description rdf:about=""/>
   </rdf:RDF>
</x:xmpmeta>
                                                                                                    
                                                                                                    
                                                                                                    
                                                                                                    
                                                                                                    
                                                                                                    
                                                                                                    
                                                                                                    
                                                                                                    
                                                                                                    
                                                                                                    
                                                                                                    
                                                                                                    
                                                                                                    
                                                                                                    
                                                                                                    
                                                                                                    
                                                                                                    
                                                                                                    
                                                                                                    
                           
<?xpacket end="w"?></metadata>
<defs>
    <style>
      .cls-1 {
        fill: #fff;
        fill-rule: evenodd;
        filter: url(#filter);
      }
    </style>
    <filter id="filter" x="29.188" y="29.313" width="30.125" height="28.219" filterUnits="userSpaceOnUse">
      <feFlood result="flood" flood-color="#fff"/>
      <feComposite result="composite" operator="in" in2="SourceGraphic"/>
      <feBlend result="blend" in2="SourceGraphic"/>
    </filter>
  </defs>
  <path id="Forma_1" data-name="Forma 1" class="cls-1" d="M30.761,43.666L44.25,31.572,57.74,43.666a0.919,0.919,0,0,0,1.326-.1,1,1,0,0,0-.092-1.374L44.867,29.548a0.917,0.917,0,0,0-1.232,0l-5.027,4.506V32.229a1.882,1.882,0,1,0-3.762,0v5.2L29.526,42.2a1,1,0,0,0-.094,1.374A0.922,0.922,0,0,0,30.761,43.666Zm9.727,4.129h7.524v9.728h5.642a1.916,1.916,0,0,0,1.881-1.946V46.043a1.965,1.965,0,0,0-.691-1.5l-9.4-7.976a1.828,1.828,0,0,0-2.383,0l-9.4,7.976a1.964,1.964,0,0,0-.689,1.5v9.535a1.915,1.915,0,0,0,1.881,1.946h5.643V47.795Z" transform="translate(-29.749 -29.313)"/>
</svg>
