<svg xmlns="http://www.w3.org/2000/svg" xmlns:xlink="http://www.w3.org/1999/xlink" width="35.031" height="26.188" viewBox="0 0 35.031 26.188">
  <metadata><?xpacket begin="﻿" id="W5M0MpCehiHzreSzNTczkc9d"?>
<x:xmpmeta xmlns:x="adobe:ns:meta/" x:xmptk="Adobe XMP Core 5.6-c138 79.159824, 2016/09/14-01:09:01        ">
   <rdf:RDF xmlns:rdf="http://www.w3.org/1999/02/22-rdf-syntax-ns#">
      <rdf:Description rdf:about=""/>
   </rdf:RDF>
</x:xmpmeta>
                                                                                                    
                                                                                                    
                                                                                                    
                                                                                                    
                                                                                                    
                                                                                                    
                                                                                                    
                                                                                                    
                                                                                                    
                                                                                                    
                                                                                                    
                                                                                                    
                                                                                                    
                                                                                                    
                                                                                                    
                                                                                                    
                                                                                                    
                                                                                                    
                                                                                                    
                                                                                                    
                           
<?xpacket end="w"?></metadata>
<defs>
    <style>
      .cls-1 {
        fill-rule: evenodd;
        filter: url(#filter);
      }
    </style>
    <filter id="filter" x="28.063" y="119.406" width="35.031" height="26.188" filterUnits="userSpaceOnUse">
      <feFlood result="flood" flood-color="#fff"/>
      <feComposite result="composite" operator="in" in2="SourceGraphic"/>
      <feBlend result="blend" in2="SourceGraphic"/>
    </filter>
  </defs>
  <path id="Forma_1" data-name="Forma 1" class="cls-1" d="M53.309,129.742a6.055,6.055,0,1,1-6.057,6.054A6.063,6.063,0,0,1,53.309,129.742Zm-5.282,5.669h2.941a2.365,2.365,0,0,1,.417-1.006L49.31,132.33A5.273,5.273,0,0,0,48.028,135.411Zm4.9-4.894a5.282,5.282,0,0,0-3.081,1.276l2.076,2.075a2.361,2.361,0,0,1,1.006-.417v-2.934h0Zm0.76,0v2.934a2.361,2.361,0,0,1,1.006.417l2.076-2.074A5.277,5.277,0,0,0,53.689,130.517Zm3.619,1.814-2.076,2.075a2.353,2.353,0,0,1,.417,1h2.942A5.265,5.265,0,0,0,57.309,132.331Zm1.283,3.84H55.65a2.356,2.356,0,0,1-.417,1l2.082,2.081A5.267,5.267,0,0,0,58.592,136.171Zm-4.9,4.905a5.276,5.276,0,0,0,3.088-1.282l-2.082-2.081a2.36,2.36,0,0,1-1.005.416v2.947h0Zm1.339-5.285a1.719,1.719,0,1,0-1.719,1.717A1.719,1.719,0,0,0,55.028,135.791Zm-2.1,5.285V138.13a2.374,2.374,0,0,1-1.006-.417l-2.082,2.081A5.277,5.277,0,0,0,52.929,141.076Zm-3.625-1.82,2.082-2.08a2.366,2.366,0,0,1-.417-1H48.027A5.268,5.268,0,0,0,49.3,139.256Zm-19.992-14.4a1.523,1.523,0,0,1,.407.057l1.547,0.426,1.607-3.913a3.508,3.508,0,0,1,3-2.01H50.912a3.507,3.507,0,0,1,3,2.01l1.6,3.907,1.528-.42a1.523,1.523,0,0,1,.407-0.057,1.253,1.253,0,0,1,1.262,1.328v0.912a1.625,1.625,0,0,1-.077.494,9.791,9.791,0,1,1-14.56,11.484h-9.84v1.941a1.631,1.631,0,0,1-1.63,1.629H30.479a1.631,1.631,0,0,1-1.629-1.629v-7.773a12.2,12.2,0,0,1,.767-3.886l0.259-.632h-0.2a1.63,1.63,0,0,1-1.63-1.628v-0.912A1.253,1.253,0,0,1,29.312,124.851Zm22.605-2.934a2.108,2.108,0,0,0-1.8-1.206H36.667a2.108,2.108,0,0,0-1.8,1.206l-2.431,5.918a0.813,0.813,0,0,0,.809,1.2H46.228A9.771,9.771,0,0,1,53.309,126c0.1,0,.193,0,0.29.008Zm1.392,20.834a6.955,6.955,0,1,0-6.958-6.955A6.956,6.956,0,0,0,53.309,142.751ZM31.986,135.32a0.654,0.654,0,0,0,.652.652h4.617a0.654,0.654,0,0,0,.652-0.652V133.1a0.653,0.653,0,0,0-.652-0.651H32.638a0.653,0.653,0,0,0-.652.651v2.215Z" transform="translate(-28.063 -119.406)"/>
</svg>
