<svg xmlns="http://www.w3.org/2000/svg" xmlns:xlink="http://www.w3.org/1999/xlink" width="29.719" height="23.438" viewBox="0 0 29.719 23.438">
  <metadata><?xpacket begin="﻿" id="W5M0MpCehiHzreSzNTczkc9d"?>
<x:xmpmeta xmlns:x="adobe:ns:meta/" x:xmptk="Adobe XMP Core 5.6-c138 79.159824, 2016/09/14-01:09:01        ">
   <rdf:RDF xmlns:rdf="http://www.w3.org/1999/02/22-rdf-syntax-ns#">
      <rdf:Description rdf:about=""/>
   </rdf:RDF>
</x:xmpmeta>
                                                                                                    
                                                                                                    
                                                                                                    
                                                                                                    
                                                                                                    
                                                                                                    
                                                                                                    
                                                                                                    
                                                                                                    
                                                                                                    
                                                                                                    
                                                                                                    
                                                                                                    
                                                                                                    
                                                                                                    
                                                                                                    
                                                                                                    
                                                                                                    
                                                                                                    
                                                                                                    
                           
<?xpacket end="w"?></metadata>
<defs>
    <style>
      .cls-1 {
        fill-rule: evenodd;
        filter: url(#filter);
      }
    </style>
    <filter id="filter" x="30.563" y="292.156" width="29.719" height="23.438" filterUnits="userSpaceOnUse">
      <feFlood result="flood" flood-color="#fff"/>
      <feComposite result="composite" operator="in" in2="SourceGraphic"/>
      <feBlend result="blend" in2="SourceGraphic"/>
    </filter>
  </defs>
  <path id="Forma_1" data-name="Forma 1" class="cls-1" d="M57.621,315.6a2.534,2.534,0,0,0,1.738-.658l-8.415-8.448c-0.2.145-.4,0.287-0.583,0.421q-0.945.7-1.533,1.09a9.543,9.543,0,0,1-1.566.8,4.758,4.758,0,0,1-1.823.408H45.407a4.759,4.759,0,0,1-1.823-.408,9.524,9.524,0,0,1-1.566-.8q-0.588-.392-1.533-1.09c-0.176-.129-0.37-0.271-0.581-0.423l-8.416,8.45a2.532,2.532,0,0,0,1.738.658h24.4ZM32.248,301.172a8.8,8.8,0,0,1-1.674-1.448v12.852l7.417-7.445Q35.764,303.571,32.248,301.172Zm26.369,0q-3.387,2.3-5.756,3.962l7.413,7.443V299.724A9.188,9.188,0,0,1,58.616,301.172Zm-0.995-9h-24.4a2.364,2.364,0,0,0-1.964.865,3.366,3.366,0,0,0-.688,2.163,3.9,3.9,0,0,0,.912,2.272,8.241,8.241,0,0,0,1.939,1.921q0.563,0.4,3.4,2.371c1.02,0.71,1.907,1.328,2.669,1.862,0.65,0.454,1.21.848,1.673,1.175,0.053,0.037.137,0.1,0.248,0.177l0.457,0.33q0.539,0.392.895,0.633t0.862,0.54a5.008,5.008,0,0,0,.953.45,2.647,2.647,0,0,0,.829.149H45.44a2.643,2.643,0,0,0,.828-0.149,5.008,5.008,0,0,0,.953-0.45c0.337-.2.624-0.38,0.862-0.54s0.536-.372.9-0.633l0.457-.33,0.248-.177,1.677-1.17q2.061-1.438,6.079-4.238a7.912,7.912,0,0,0,2.022-2.046,4.414,4.414,0,0,0,.812-2.513A2.679,2.679,0,0,0,57.621,292.17Z" transform="translate(-30.563 -292.156)"/>
</svg>
