<svg xmlns="http://www.w3.org/2000/svg" xmlns:xlink="http://www.w3.org/1999/xlink" width="40.969" height="44.344" viewBox="0 0 40.969 44.344">
  <metadata><?xpacket begin="﻿" id="W5M0MpCehiHzreSzNTczkc9d"?>
<x:xmpmeta xmlns:x="adobe:ns:meta/" x:xmptk="Adobe XMP Core 5.6-c138 79.159824, 2016/09/14-01:09:01        ">
   <rdf:RDF xmlns:rdf="http://www.w3.org/1999/02/22-rdf-syntax-ns#">
      <rdf:Description rdf:about=""/>
   </rdf:RDF>
</x:xmpmeta>
                                                                                                    
                                                                                                    
                                                                                                    
                                                                                                    
                                                                                                    
                                                                                                    
                                                                                                    
                                                                                                    
                                                                                                    
                                                                                                    
                                                                                                    
                                                                                                    
                                                                                                    
                                                                                                    
                                                                                                    
                                                                                                    
                                                                                                    
                                                                                                    
                                                                                                    
                                                                                                    
                           
<?xpacket end="w"?></metadata>
<defs>
    <style>
      .cls-1, .cls-2, .cls-3, .cls-4, .cls-5 {
        fill: #a3a3a3;
        fill-rule: evenodd;
      }

      .cls-1 {
        fill-opacity: 0;
        stroke: #40424e;
        stroke-linejoin: round;
        stroke-width: 1px;
      }

      .cls-2 {
        filter: url(#filter);
      }

      .cls-3 {
        filter: url(#filter-2);
      }

      .cls-4 {
        filter: url(#filter-3);
      }

      .cls-5 {
        filter: url(#filter-4);
      }
    </style>
    <filter id="filter" x="995.75" y="449" width="30.25" height="6.781" filterUnits="userSpaceOnUse">
      <feFlood result="flood" flood-color="#40424e"/>
      <feComposite result="composite" operator="in" in2="SourceGraphic"/>
      <feBlend result="blend" in2="SourceGraphic"/>
    </filter>
    <filter id="filter-2" x="997.438" y="461.719" width="24.652" height="1.719" filterUnits="userSpaceOnUse">
      <feFlood result="flood" flood-color="#40424e"/>
      <feComposite result="composite" operator="in" in2="SourceGraphic"/>
      <feBlend result="blend" in2="SourceGraphic"/>
    </filter>
    <filter id="filter-3" x="997.438" y="466.813" width="24.652" height="1.718" filterUnits="userSpaceOnUse">
      <feFlood result="flood" flood-color="#40424e"/>
      <feComposite result="composite" operator="in" in2="SourceGraphic"/>
      <feBlend result="blend" in2="SourceGraphic"/>
    </filter>
    <filter id="filter-4" x="997.438" y="471.938" width="24.652" height="1.687" filterUnits="userSpaceOnUse">
      <feFlood result="flood" flood-color="#40424e"/>
      <feComposite result="composite" operator="in" in2="SourceGraphic"/>
      <feBlend result="blend" in2="SourceGraphic"/>
    </filter>
  </defs>
  <path id="Rounded_Rectangle_3" data-name="Rounded Rectangle 3" class="cls-1" d="M999.8,439.629h19.963a10,10,0,0,1,10,10v23.336a10,10,0,0,1-10,10H999.8a10,10,0,0,1-10-10V449.629A10,10,0,0,1,999.8,439.629Z" transform="translate(-989.281 -439.125)"/>
  <path id="XXXX_XX" data-name="XXXX  XX" class="cls-2" d="M1000.92,455.776h1.59l-2.6-3.5,2.49-3.29h-1.52l-1.731,2.276-1.69-2.276h-1.6l2.489,3.338-2.611,3.453h1.522l1.841-2.439Zm7.04,0h1.6l-2.61-3.5,2.49-3.29h-1.52l-1.73,2.276-1.69-2.276h-1.59l2.48,3.338-2.61,3.453h1.53l1.84-2.439Zm7.04,0h1.6l-2.6-3.5,2.49-3.29h-1.53l-1.72,2.276-1.69-2.276h-1.6l2.49,3.338-2.61,3.453h1.52l1.84-2.439Zm7.05,0h1.59l-2.6-3.5,2.49-3.29h-1.52l-1.73,2.276-1.69-2.276h-1.6l2.49,3.338-2.61,3.453h1.52l1.84-2.439Zm10.95,0h1.6l-2.6-3.5,2.49-3.29h-1.52l-1.73,2.276-1.69-2.276h-1.6l2.49,3.338-2.61,3.453h1.52l1.84-2.439Zm7.05,0h1.59l-2.6-3.5,2.49-3.29h-1.52l-1.73,2.276-1.69-2.276h-1.6l2.49,3.338-2.61,3.453h1.52l1.84-2.439Z" transform="translate(-989.281 -439.125)"/>
  <path id="Rounded_Rectangle_4" data-name="Rounded Rectangle 4" class="cls-3" d="M997.805,461.707h23.925a0.363,0.363,0,0,1,.36.367v1a0.363,0.363,0,0,1-.36.367H997.805a0.367,0.367,0,0,1-.368-0.367v-1A0.367,0.367,0,0,1,997.805,461.707Z" transform="translate(-989.281 -439.125)"/>
  <path id="Rounded_Rectangle_4_copy" data-name="Rounded Rectangle 4 copy" class="cls-4" d="M997.793,466.816h23.947a0.355,0.355,0,0,1,.35.356v1a0.355,0.355,0,0,1-.35.355H997.793a0.355,0.355,0,0,1-.356-0.355v-1A0.356,0.356,0,0,1,997.793,466.816Z" transform="translate(-989.281 -439.125)"/>
  <path id="Rounded_Rectangle_4_copy_2" data-name="Rounded Rectangle 4 copy 2" class="cls-5" d="M997.781,471.926h23.969a0.34,0.34,0,0,1,.34.343v1a0.341,0.341,0,0,1-.34.344H997.781a0.344,0.344,0,0,1-.344-0.344v-1A0.344,0.344,0,0,1,997.781,471.926Z" transform="translate(-989.281 -439.125)"/>
</svg>
