<svg xmlns="http://www.w3.org/2000/svg" xmlns:xlink="http://www.w3.org/1999/xlink" width="22.28" height="17.562" viewBox="0 0 22.28 17.562">
  <metadata><?xpacket begin="﻿" id="W5M0MpCehiHzreSzNTczkc9d"?>
<x:xmpmeta xmlns:x="adobe:ns:meta/" x:xmptk="Adobe XMP Core 5.6-c138 79.159824, 2016/09/14-01:09:01        ">
   <rdf:RDF xmlns:rdf="http://www.w3.org/1999/02/22-rdf-syntax-ns#">
      <rdf:Description rdf:about=""/>
   </rdf:RDF>
</x:xmpmeta>
                                                                                                    
                                                                                                    
                                                                                                    
                                                                                                    
                                                                                                    
                                                                                                    
                                                                                                    
                                                                                                    
                                                                                                    
                                                                                                    
                                                                                                    
                                                                                                    
                                                                                                    
                                                                                                    
                                                                                                    
                                                                                                    
                                                                                                    
                                                                                                    
                                                                                                    
                                                                                                    
                           
<?xpacket end="w"?></metadata>
<defs>
    <style>
      .cls-1 {
        fill-rule: evenodd;
        filter: url(#filter);
      }
    </style>
    <filter id="filter" x="1793.28" y="360.094" width="22.28" height="17.562" filterUnits="userSpaceOnUse">
      <feFlood result="flood" flood-color="#a1a8b2"/>
      <feComposite result="composite" operator="in" in2="SourceGraphic"/>
      <feBlend result="blend" in2="SourceGraphic"/>
    </filter>
  </defs>
  <path id="Forma_1" data-name="Forma 1" class="cls-1" d="M1813.57,377.667a1.918,1.918,0,0,0,1.31-.494l-6.32-6.336c-0.15.109-.29,0.215-0.43,0.316-0.48.349-.86,0.621-1.15,0.817a7.345,7.345,0,0,1-1.18.6,3.546,3.546,0,0,1-1.36.305h-0.03a3.592,3.592,0,0,1-1.37-.305,6.8,6.8,0,0,1-1.17-.6c-0.3-.2-0.68-0.468-1.15-0.817-0.13-.1-0.28-0.2-0.44-0.317l-6.31,6.337a1.894,1.894,0,0,0,1.3.494h18.3Zm-19.03-10.82a6.51,6.51,0,0,1-1.25-1.085V375.4l5.56-5.584Q1797.185,368.647,1794.54,366.847Zm19.78,0c-1.7,1.151-3.13,2.141-4.32,2.972l5.56,5.582v-9.639A7.044,7.044,0,0,1,1814.32,366.847Zm-0.75-6.751h-18.3a1.786,1.786,0,0,0-1.47.649,2.544,2.544,0,0,0-.51,1.622,2.889,2.889,0,0,0,.68,1.7,6.132,6.132,0,0,0,1.45,1.441c0.29,0.2,1.13.793,2.55,1.778,0.77,0.532,1.43,1,2,1.4q0.735,0.512,1.26.881c0.04,0.028.1,0.073,0.18,0.132s0.21,0.147.35,0.248c0.27,0.2.49,0.354,0.67,0.475s0.39,0.255.64,0.4a4.125,4.125,0,0,0,.72.337,1.94,1.94,0,0,0,.62.112h0.03a1.989,1.989,0,0,0,.62-0.112,3.749,3.749,0,0,0,.71-0.337c0.25-.15.47-0.285,0.65-0.4s0.4-.279.67-0.475c0.14-.1.25-0.183,0.34-0.247s0.15-.105.19-0.133c0.27-.189.69-0.483,1.26-0.878,1.03-.719,2.54-1.777,4.56-3.178a5.875,5.875,0,0,0,1.51-1.535,3.279,3.279,0,0,0,.61-1.884A2.009,2.009,0,0,0,1813.57,360.1Z" transform="translate(-1793.28 -360.094)"/>
</svg>
