<svg xmlns="http://www.w3.org/2000/svg" xmlns:xlink="http://www.w3.org/1999/xlink" width="21.75" height="21.718" viewBox="0 0 21.75 21.718">
  <metadata><?xpacket begin="﻿" id="W5M0MpCehiHzreSzNTczkc9d"?>
<x:xmpmeta xmlns:x="adobe:ns:meta/" x:xmptk="Adobe XMP Core 5.6-c138 79.159824, 2016/09/14-01:09:01        ">
   <rdf:RDF xmlns:rdf="http://www.w3.org/1999/02/22-rdf-syntax-ns#">
      <rdf:Description rdf:about=""/>
   </rdf:RDF>
</x:xmpmeta>
                                                                                                    
                                                                                                    
                                                                                                    
                                                                                                    
                                                                                                    
                                                                                                    
                                                                                                    
                                                                                                    
                                                                                                    
                                                                                                    
                                                                                                    
                                                                                                    
                                                                                                    
                                                                                                    
                                                                                                    
                                                                                                    
                                                                                                    
                                                                                                    
                                                                                                    
                                                                                                    
                           
<?xpacket end="w"?></metadata>
<defs>
    <style>
      .cls-1 {
        fill: #a4c0d6;
        fill-rule: evenodd;
        filter: url(#filter);
      }
    </style>
    <filter id="filter" x="1793.13" y="335.313" width="21.75" height="21.718" filterUnits="userSpaceOnUse">
      <feFlood result="flood" flood-color="#a1a8b2"/>
      <feComposite result="composite" operator="in" in2="SourceGraphic"/>
      <feBlend result="blend" in2="SourceGraphic"/>
    </filter>
  </defs>
  <path id="Forma_1" data-name="Forma 1" class="cls-1" d="M1810.8,350.249h-1.36a2.72,2.72,0,0,1-2.72-2.718v-0.873a6.927,6.927,0,0,0,1.3-2.454,0.727,0.727,0,0,1,.27-0.328,1.682,1.682,0,0,0,.23-2.024,0.567,0.567,0,0,1-.14-0.294v-2.392a4,4,0,0,0-.97-2.674,3.8,3.8,0,0,0-2.07-1.064,6.847,6.847,0,0,0-2.96.069,3.616,3.616,0,0,0-2.11,1.427,4.193,4.193,0,0,0-.65,2.152c-0.01.811,0,1.624,0,2.437a0.793,0.793,0,0,1-.18.407,1.682,1.682,0,0,0,.38,2.061,0.769,0.769,0,0,1,.23.455,6.63,6.63,0,0,0,1.23,2.192v0.9a2.72,2.72,0,0,1-2.72,2.718h-1.36s-2.47.68-4.08,4.077v1.359a1.359,1.359,0,0,0,1.36,1.359h19.04a1.36,1.36,0,0,0,1.36-1.359v-1.359C1813.26,350.929,1810.8,350.249,1810.8,350.249Z" transform="translate(-1793.13 -335.313)"/>
</svg>
